<svg xmlns="http://www.w3.org/2000/svg" width="1280" height="1280">
<path d="M0 0 C422.4 0 844.8 0 1280 0 C1280 422.4 1280 844.8 1280 1280 C857.6 1280 435.2 1280 0 1280 C0 857.6 0 435.2 0 0 Z" fill="#000000" transform="translate(0,0)"/>
<path d="M0 0 C1.36138458 -0.00305294 2.72276515 -0.00918278 4.08412379 -0.01812416 C7.82447169 -0.0337834 11.56341762 -0.00577161 15.30358684 0.02932227 C19.33693767 0.05953487 23.37020861 0.04932313 27.40364075 0.04400635 C34.39152595 0.04033476 41.37895385 0.06230802 48.36672401 0.10167122 C58.46980076 0.1585464 68.57265625 0.17678982 78.67587575 0.18558716 C95.06730161 0.20090986 111.45848372 0.24750054 127.84977722 0.31370544 C143.77294189 0.37795271 159.69604037 0.42750453 175.61930847 0.45726013 C176.6007164 0.4590992 177.58212433 0.46093826 178.59327189 0.46283305 C183.51667774 0.47196828 188.44008406 0.48081424 193.3634907 0.48951638 C234.21203509 0.56209059 275.06031116 0.68538886 315.90861511 0.84178162 C314.68328656 4.63102767 313.45549924 7.91256349 311.32658386 11.28318787 C310.81329529 12.10343445 310.30000671 12.92368103 309.77116394 13.76878357 C309.21839783 14.63849792 308.66563171 15.50821228 308.09611511 16.40428162 C306.91624453 18.28437507 305.7365624 20.16458679 304.55705261 22.04490662 C303.95216003 23.00461365 303.34726746 23.96432068 302.7240448 24.95310974 C299.86385245 29.50418503 297.04418477 34.0801247 294.22111511 38.65428162 C289.98821792 45.49951715 285.72995808 52.32816027 281.44841003 59.14305115 C278.19564549 64.33865246 275.04125278 69.59059113 271.9506073 74.88426208 C269.83710482 78.46164942 267.7790138 81.83013388 264.90861511 84.84178162 C262.28943944 85.4627741 262.28943944 85.4627741 259.24707413 85.45702076 C258.086106 85.466976 256.92513787 85.47693124 255.72898889 85.48718816 C254.45273637 85.47262395 253.17648385 85.45805975 251.86155701 85.4430542 C250.4927908 85.44523416 249.12402662 85.4496113 247.75527358 85.45600003 C243.99012359 85.46719819 240.22568264 85.44715674 236.46062303 85.42210972 C232.4020324 85.40054909 228.34348285 85.40782202 224.28485107 85.41162109 C217.25175222 85.41424488 210.21888501 85.39853647 203.18584442 85.3704319 C193.01724637 85.32982381 182.84876051 85.31677745 172.68009016 85.31049194 C156.18279667 85.29954452 139.68562668 85.2662582 123.18840027 85.21897888 C107.16138833 85.17309487 91.13440992 85.13769729 75.10734558 85.11643982 C73.62587862 85.11446939 73.62587862 85.11446939 72.11448303 85.11245916 C67.15983819 85.10593405 62.20519312 85.09961549 57.25054789 85.09339964 C16.13648437 85.0415527 -24.9774432 84.95347524 -66.09138489 84.84178162 C-64.99282778 82.94826709 -63.89296066 81.05551255 -62.79255676 79.16307068 C-62.18021179 78.10895996 -61.56786682 77.05484924 -60.93696594 75.96879578 C-58.26339781 71.43890239 -55.43843418 67.01390951 -52.59138489 62.59178162 C-47.50228617 54.64169863 -42.46101203 46.66405993 -37.46638489 38.65428162 C-28.04618852 23.56075186 -28.04618852 23.56075186 -23.46638489 16.27928162 C-22.99378235 15.52429382 -22.52117981 14.76930603 -22.03425598 13.99143982 C-21.5864679 13.28076355 -21.13867981 12.57008728 -20.67732239 11.83787537 C-20.29624329 11.23129089 -19.91516418 10.62470642 -19.52253723 9.9997406 C-19.05025696 9.28761414 -18.57797668 8.57548767 -18.09138489 7.84178162 C-17.50687718 6.65963546 -16.92236948 5.4774893 -16.32014942 4.25952053 C-12.33618742 -1.22240988 -6.19498742 -0.09980983 0 0 Z" fill="#FEFEFE" transform="translate(582.0913848876953,378.15821838378906)"/>
<path d="M0 0 C1.49856628 0.00056958 1.49856628 0.00056958 3.02740663 0.00115067 C4.74944892 -0.00183591 4.74944892 -0.00183591 6.50627995 -0.00488281 C8.42209367 -0.00051355 8.42209367 -0.00051355 10.3766107 0.00394398 C11.73453328 0.0035084 13.09245577 0.00263373 14.45037782 0.00135481 C18.19924689 -0.00089269 21.94808766 0.00313461 25.69695312 0.00813287 C29.73310141 0.01243355 33.76924799 0.01099123 37.80539793 0.0102306 C44.80408001 0.00970512 51.8027528 0.01285442 58.80143255 0.01846844 C68.92046765 0.0265802 79.03949824 0.02919833 89.15853625 0.03045643 C105.57424277 0.03264746 121.98994434 0.03930893 138.40564817 0.04875904 C154.35616875 0.05793184 170.30668799 0.06501332 186.25721067 0.06926686 C187.23966949 0.06952958 188.22212832 0.0697923 189.23435862 0.07006299 C194.16284742 0.07136798 199.09133623 0.0726317 204.01982504 0.07387489 C244.93530143 0.08424909 285.85077237 0.10186879 326.76624388 0.1241985 C325.63170456 3.60408798 324.50407474 6.89679831 322.76624388 10.1241985 C322.10624388 10.1241985 321.44624388 10.1241985 320.76624388 10.1241985 C320.39499388 11.15093678 320.39499388 11.15093678 320.01624388 12.19841725 C318.54908078 15.63249586 316.70872148 18.75851724 314.76624388 21.9366985 C314.37034055 22.59049488 313.97443723 23.24429127 313.56653684 23.91789967 C310.30589224 29.28435061 306.97957421 34.60940367 303.64148802 39.92790943 C300.4634338 44.99470919 297.32267042 50.08329716 294.20374388 55.1866985 C293.74620725 55.93499928 293.28867063 56.68330006 292.81726927 57.45427662 C290.59465536 61.09782813 288.38826015 64.74989117 286.21155638 68.4210735 C285.80880491 69.0990398 285.40605345 69.77700611 284.99109739 70.47551686 C284.24327858 71.73727458 283.49870459 73.00096406 282.75818723 74.26702076 C280.65986639 77.8087853 278.60870661 81.13919915 275.76624388 84.1241985 C273.1470682 84.74519098 273.1470682 84.74519098 270.10470289 84.73943764 C268.94373476 84.74939288 267.78276663 84.75934812 266.58661765 84.76960504 C265.31036513 84.75504083 264.03411261 84.74047663 262.71918577 84.72547108 C261.35041956 84.72765104 259.98165538 84.73202818 258.61290234 84.73841691 C254.84775236 84.74961507 251.0833114 84.72957362 247.31825179 84.7045266 C243.25966116 84.68296597 239.20111161 84.6902389 235.14247984 84.69403797 C228.10938098 84.69666176 221.07651377 84.68095335 214.04347318 84.65284878 C203.87487513 84.61224069 193.70638927 84.59919433 183.53771892 84.59290882 C167.04042543 84.5819614 150.54325545 84.54867508 134.04602903 84.50139576 C118.0190171 84.45551175 101.99203869 84.42011417 85.96497434 84.3988567 C84.48350738 84.39688627 84.48350738 84.39688627 82.97211179 84.39487604 C78.01746696 84.38835093 73.06282188 84.38203237 68.10817665 84.37581652 C26.99411313 84.32396958 -14.11981443 84.23589212 -55.23375612 84.1241985 C-54.13741304 82.2343364 -53.03973823 80.34524682 -51.9415198 78.45647389 C-51.02483774 76.87836682 -51.02483774 76.87836682 -50.08963686 75.26837879 C-47.35091852 70.62852017 -44.45941014 66.09331778 -41.54625612 61.5616985 C-40.31550605 59.63739923 -39.08504227 57.71291683 -37.85484987 55.788261 C-37.24625124 54.83725514 -36.63765261 53.88624928 -36.01061159 52.90642506 C-33.36195098 48.75911312 -30.73384083 44.59895967 -28.10875612 40.4366985 C-27.62551882 39.6709148 -27.14228152 38.90513111 -26.64440066 38.11614186 C-25.67063273 36.57285145 -24.69699976 35.02947588 -23.72350222 33.4860149 C-19.66717882 27.05519344 -15.60780815 20.62629703 -11.54527956 14.19939381 C-10.71222506 12.8812696 -9.87950387 11.56293463 -9.04723269 10.24431568 C-8.04817848 8.66180664 -7.04730473 7.08044669 -6.04625612 5.4991985 C-5.51645144 4.66130787 -4.98664675 3.82341725 -4.44078737 2.960136 C-2.58930629 0.14396735 -2.58930629 0.14396735 0 0 Z" fill="#FEFEFE" transform="translate(457.2337561249733,766.8758015036583)"/>
<path d="M0 0 C7.05990022 8.65659606 12.64716713 17.82864586 17.45703125 27.87109375 C18.84494719 30.68557645 20.37601926 33.31844053 22 36 C24.06648151 40.09733402 25.83619297 43.87382664 26.5 48.4375 C26.665 49.283125 26.83 50.12875 27 51 C28.95163118 52.43637698 28.95163118 52.43637698 31 53 C31 53.66 31 54.32 31 55 C31.66 55 32.32 55 33 55 C34.58997 57.80879558 36.1706936 60.62269688 37.75 63.4375 C38.1934375 64.22060547 38.636875 65.00371094 39.09375 65.81054688 C47 79.93715533 47 79.93715533 47 84 C47.66 84 48.32 84 49 84 C52 89.75 52 89.75 52 92 C52.66 92 53.32 92 54 92 C54.33773437 92.74765625 54.67546875 93.4953125 55.0234375 94.265625 C55.46945312 95.25046875 55.91546875 96.2353125 56.375 97.25 C56.81585937 98.22453125 57.25671875 99.1990625 57.7109375 100.203125 C59.54682048 104.59500009 59.54682048 104.59500009 62.375 108.3125 C65.78595321 111.85464372 67.6688066 116.0599358 69.28125 120.63671875 C71.11973124 125.63537833 73.77247265 130.06706304 76.5 134.625 C77.47038969 136.26204999 78.43917962 137.90004948 79.40625 139.5390625 C79.86 140.30637695 80.31375 141.07369141 80.78125 141.86425781 C81.81155768 143.66977296 82.74553112 145.52974545 83.65625 147.3984375 C84.9251972 149.8551783 86.03001612 151.1305255 88 153 C91.31331687 157.7290068 94.56295282 162.57458113 96.75 167.9375 C97.81381144 170.93165234 97.81381144 170.93165234 99.45703125 172.890625 C101.10589568 175.14476878 101.97774096 177.19684769 102.9375 179.8125 C105.78171266 187.21439161 105.78171266 187.21439161 110.5 193.5 C115.12426605 198.12426605 116.6951625 203.80202187 118 210 C118.66 210 119.32 210 120 210 C120.433125 211.051875 120.86625 212.10375 121.3125 213.1875 C122.30694362 215.53628113 123.32062525 217.51062541 124.6875 219.6875 C126 222 126 222 126 226 C126.57234375 226.01933594 127.1446875 226.03867187 127.734375 226.05859375 C131.33087173 227.55300015 132.51368804 230.76481162 134.25 234.0625 C134.63913574 234.77696289 135.02827148 235.49142578 135.42919922 236.22753906 C138.4571372 241.83628747 141.29881285 247.53660212 144.11132812 253.25561523 C147.76229063 260.63893695 151.77903891 267.82528136 156.4375 274.625 C158 277 158 277 158 279 C124.34 279 90.68 279 56 279 C52.7 273.06 49.4 267.12 46 261 C43.42846697 256.49237068 40.8502533 251.99084259 38.25 247.5 C37.31994141 245.88738281 37.31994141 245.88738281 36.37109375 244.2421875 C33.5323259 239.32962503 30.66939516 234.43694956 27.7265625 229.5859375 C25.66773445 226.17146302 23.8126119 222.74131122 22.125 219.125 C19.44725423 213.63526791 16.21055611 208.72345244 12.7578125 203.6953125 C10.69696378 200.53534447 9.35976035 197.50675038 8 194 C7.1646875 192.6078125 7.1646875 192.6078125 6.3125 191.1875 C5 189 5 189 5 187 C4.34 187 3.68 187 3 187 C1 184 1 184 1 180 C0.34 180 -0.32 180 -1 180 C-1.37898437 179.05253906 -1.75796875 178.10507812 -2.1484375 177.12890625 C-4.26846402 172.19085618 -6.94450669 167.58816222 -9.625 162.9375 C-10.15407959 162.01300049 -10.68315918 161.08850098 -11.22827148 160.13598633 C-14.35599944 154.71279935 -17.60724096 149.40717763 -21.0625 144.1875 C-23.30901556 140.76941449 -25.3532703 137.62233332 -26.6875 133.75 C-28.10054133 129.71273906 -29.99859994 126.48903989 -32.23828125 122.8671875 C-34.34185085 119.44363964 -36.36786286 115.98070326 -38.375 112.5 C-38.73295654 111.88817871 -39.09091309 111.27635742 -39.4597168 110.64599609 C-42 106.23193657 -42 106.23193657 -42 104 C-42.99 103.67 -43.98 103.34 -45 103 C-48.49762058 98.04503752 -51.82520537 92.18044442 -51 86 C-49.66436771 83.0511195 -47.99431032 80.32504557 -46.3125 77.5625 C-45.57688843 76.3242749 -45.57688843 76.3242749 -44.82641602 75.06103516 C-43.77249434 73.28853805 -42.71398483 71.51876239 -41.65136719 69.75146484 C-39.44103414 66.06866569 -37.26277247 62.36730601 -35.08276367 58.66650391 C-33.4426514 55.88374033 -31.79825591 53.10355526 -30.15234375 50.32421875 C-20.89156808 34.76802052 -20.89156808 34.76802052 -12 19 C-11.34 19 -10.68 19 -10 19 C-9.7215625 17.6078125 -9.7215625 17.6078125 -9.4375 16.1875 C-7.85265071 10.51234116 -4.17463911 4.17463911 0 0 Z" fill="#FCFCFC" transform="translate(737,477)"/>
<path d="M0 0 C2.1550293 -0.07958984 2.1550293 -0.07958984 5.36987305 0.15478516 C8.66193321 3.67652393 10.47374191 7.32544476 12.5534668 11.63134766 C15.63832672 17.82828185 19.18053309 23.72461402 22.74487305 29.65478516 C24.17831018 32.05306859 25.60847162 34.45329476 27.0378418 36.85400391 C27.58052452 37.76487007 27.58052452 37.76487007 28.13417053 38.69413757 C31.8353938 44.9172188 35.45149318 51.18855155 39.05737305 57.46728516 C44.09021073 66.2231423 49.17478417 74.94486356 54.32470703 83.63232422 C58.77900291 91.14747598 63.20418189 98.67941711 67.61987305 106.21728516 C67.97740662 106.82754547 68.33494019 107.43780579 68.70330811 108.06655884 C70.52923726 111.18323807 72.3549041 114.30007084 74.18041992 117.41699219 C76.3312738 121.0891963 78.48319677 124.76077298 80.63549805 128.43212891 C80.98563461 129.02938782 81.33577118 129.62664673 81.69651794 130.24200439 C83.10436729 132.64343779 84.51226401 135.0448434 85.92019653 137.44622803 C89.56112414 143.65626936 93.20154298 149.86660566 96.83895874 156.07870483 C98.3753624 158.7025294 99.91215461 161.3261263 101.44897461 163.94970703 C102.17459097 165.18868897 102.90002138 166.42777982 103.62524414 167.66699219 C104.63729005 169.39628099 105.65005662 171.12514796 106.6628418 172.85400391 C107.28368652 173.92650391 107.90453125 174.99900391 108.54418945 176.10400391 C109.73526396 178.09433113 110.98095184 180.05325634 112.28540039 181.97119141 C116.53615388 188.30984649 116.53615388 188.30984649 115.69799805 192.56884766 C115.0122168 193.62845703 114.32643555 194.68806641 113.61987305 195.77978516 C113.24443359 196.39329834 112.86899414 197.00681152 112.48217773 197.63891602 C111.62541603 199.03749328 110.75073839 200.42519337 109.86206055 201.80371094 C106.97276518 206.35605295 104.32438319 211.05373406 101.61987305 215.71728516 C101.0170752 216.74394287 100.41427734 217.77060059 99.79321289 218.82836914 C95.29939931 226.48624307 91.00317468 234.23428502 86.78466797 242.04638672 C82.34122359 250.25905665 77.71947846 258.36326182 73.0612793 266.45556641 C70.44992574 270.99585746 67.89981131 275.56871333 65.36987305 280.15478516 C63.29815023 277.04720093 61.52701313 273.8742098 59.74487305 270.59228516 C59.11323242 269.43599609 58.4815918 268.27970703 57.83081055 267.08837891 C56.36987305 264.15478516 56.36987305 264.15478516 56.36987305 262.15478516 C55.70987305 262.15478516 55.04987305 262.15478516 54.36987305 262.15478516 C53.19810787 260.03245537 52.0323252 257.90720725 50.86987305 255.77978516 C50.36907227 254.87486328 50.36907227 254.87486328 49.8581543 253.95166016 C47.36987305 249.38134766 47.36987305 249.38134766 47.36987305 247.15478516 C46.70987305 247.15478516 46.04987305 247.15478516 45.36987305 247.15478516 C44.96768555 246.31560547 44.96768555 246.31560547 44.55737305 245.45947266 C41.60492618 239.41861098 38.38366622 233.58688408 34.96166992 227.80273438 C32.36987305 223.36658301 32.36987305 223.36658301 32.36987305 221.15478516 C31.70987305 221.15478516 31.04987305 221.15478516 30.36987305 221.15478516 C29.03148572 218.69908341 27.69901073 216.24048599 26.36987305 213.77978516 C25.98831055 213.08111328 25.60674805 212.38244141 25.21362305 211.66259766 C22.36987305 206.38134766 22.36987305 206.38134766 22.36987305 204.15478516 C21.70987305 204.15478516 21.04987305 204.15478516 20.36987305 204.15478516 C18.36308904 200.53350072 16.36560824 196.90716872 14.36987305 193.27978516 C13.51135742 191.73097656 13.51135742 191.73097656 12.63549805 190.15087891 C12.0940918 189.16474609 11.55268555 188.17861328 10.99487305 187.16259766 C10.49213867 186.2513916 9.9894043 185.34018555 9.47143555 184.40136719 C8.36987305 182.15478516 8.36987305 182.15478516 8.36987305 180.15478516 C7.70987305 180.15478516 7.04987305 180.15478516 6.36987305 180.15478516 C5.03148572 177.69908341 3.69901073 175.24048599 2.36987305 172.77978516 C1.98831055 172.08111328 1.60674805 171.38244141 1.21362305 170.66259766 C-1.63012695 165.38134766 -1.63012695 165.38134766 -1.63012695 163.15478516 C-2.29012695 163.15478516 -2.95012695 163.15478516 -3.63012695 163.15478516 C-3.99775146 162.46964844 -4.36537598 161.78451172 -4.74414062 161.07861328 C-6.43251191 157.93582883 -8.12503609 154.79529896 -9.81762695 151.65478516 C-10.39577148 150.57712891 -10.97391602 149.49947266 -11.56958008 148.38916016 C-14.41947768 143.10799397 -17.305056 137.89352657 -20.55004883 132.84375 C-25.63012695 124.89981228 -25.63012695 124.89981228 -25.63012695 122.15478516 C-26.29012695 122.15478516 -26.95012695 122.15478516 -27.63012695 122.15478516 C-28.96851428 119.69908341 -30.30098927 117.24048599 -31.63012695 114.77978516 C-32.01168945 114.08111328 -32.39325195 113.38244141 -32.78637695 112.66259766 C-35.63012695 107.38134766 -35.63012695 107.38134766 -35.63012695 105.15478516 C-36.29012695 105.15478516 -36.95012695 105.15478516 -37.63012695 105.15478516 C-38.1921582 104.00751953 -38.75418945 102.86025391 -39.33325195 101.67822266 C-41.8985221 96.54542021 -44.75211959 91.59179787 -47.6262207 86.62744141 C-50.63012695 81.36811053 -50.63012695 81.36811053 -50.63012695 79.15478516 C-51.29012695 79.15478516 -51.95012695 79.15478516 -52.63012695 79.15478516 C-53.96851428 76.69908341 -55.30098927 74.24048599 -56.63012695 71.77978516 C-57.01168945 71.08111328 -57.39325195 70.38244141 -57.78637695 69.66259766 C-60.63012695 64.38134766 -60.63012695 64.38134766 -60.63012695 62.15478516 C-61.29012695 62.15478516 -61.95012695 62.15478516 -62.63012695 62.15478516 C-63.1921582 61.00236328 -63.75418945 59.84994141 -64.33325195 58.66259766 C-66.49835545 54.33429322 -68.89723132 50.18171142 -71.38012695 46.02978516 C-72.25830829 44.54705393 -73.13590293 43.06397508 -74.01293945 41.58056641 C-74.44896484 40.84402832 -74.88499023 40.10749023 -75.33422852 39.34863281 C-77.32372171 35.98058725 -79.29763165 32.60402019 -81.25512695 29.21728516 C-81.90739258 28.09451172 -82.5596582 26.97173828 -83.23168945 25.81494141 C-84.63012695 23.15478516 -84.63012695 23.15478516 -84.63012695 21.15478516 C-85.29012695 21.15478516 -85.95012695 21.15478516 -86.63012695 21.15478516 C-86.8724707 20.64689453 -87.11481445 20.13900391 -87.36450195 19.61572266 C-89.03077496 16.19345425 -90.70916796 12.91216885 -92.88012695 9.77978516 C-94.63012695 7.15478516 -94.63012695 7.15478516 -94.63012695 5.15478516 C-93.83767578 5.13496582 -93.04522461 5.11514648 -92.22875977 5.09472656 C-75.75808634 4.66602482 -59.36668757 3.95063766 -42.93481445 2.69775391 C-35.32110992 2.1192978 -27.70304118 1.6299147 -20.08172607 1.16452026 C-18.63232122 1.0758185 -17.18297798 0.98610307 -15.73370361 0.89529419 C-10.49057367 0.56714908 -5.2441598 0.30862316 0 0 Z" fill="#FDFDFD" transform="translate(499.630126953125,473.84521484375)"/>
<path d="M0 0 C0.99 0.99 1.98 1.98 3 3 C2.67 3.66 2.34 4.32 2 5 C-0.5625 5.625 -0.5625 5.625 -3 6 C-1.125 1.125 -1.125 1.125 0 0 Z" fill="#CBCBCB" transform="translate(737,477)"/>
</svg>